#!OML:ASF I:\Actors\actors\Patient Classification 2\Patient 1\Session 1\actor1.ASF
:FULLY-SPECIFIED
:DEGREES
88
root -0.599196 18.7234 5.27051 1.62713 -5.72991 -2.95372
lowerback 2.60477 0.367869 -0.348919
upperback 0.19164 0.48526 0.390947
thorax -1.26971 0.245238 0.578212
lowerneck -14.3456 -1.6368 -0.379087
upperneck 32.1107 -3.07672 2.13191
head 13.1999 -1.1351 0.42157
rclavicle -1.31446e-014 -1.19271e-015
rhumerus -3.76272 38.9155 -78.2856
rradius 71.1444
rwrist 6.34897
rhand -8.42428 -51.6821
rfingers 7.12502
rthumb 17.5006 -80.9144
lclavicle -1.31446e-014 -1.19271e-015
lhumerus 6.2993 -35.1436 72.41
lradius 58.7003
lwrist 5.4193
lhand -5.07136 -42.8067
lfingers 7.12502
lthumb 20.7249 -13.8933
rfemur 0 0 0
rtibia 0
rfoot 0 0
rtoes 0
lfemur -4.61525 -5.09421 -11.6872
ltibia 22.0926
lfoot -24.074 17.2549
ltoes -53.856
89
root -0.598282 18.7237 5.27187 1.61613 -5.78813 -2.92419
lowerback 2.72334 0.374406 -0.405336
upperback 0.234469 0.491199 0.336046
thorax -1.29234 0.24832 0.552757
lowerneck -14.4813 -1.63149 -0.23567
upperneck 32.101 -3.11793 2.14899
head 13.224 -1.13233 0.395625
rclavicle -1.93815e-015 -9.14409e-015
rhumerus -2.55771 39.6725 -76.9885
rradius 70.9884
rwrist 6.03364
rhand -8.93265 -51.5135
rfingers 7.12502
rthumb 17.0113 -80.7887
lclavicle -1.93815e-015 -9.14409e-015
lhumerus 6.52072 -35.0169 72.4185
lradius 58.4511
lwrist 5.19452
lhand -4.8645 -42.7435
lfingers 7.12502
lthumb 20.9236 -13.852
rfemur 0 0 0
rtibia 0
rfoot 0 0
rtoes 0
lfemur -4.58402 -5.14329 -11.7339
ltibia 22.1006
lfoot -24.1727 17.2693
ltoes -53.7106
90
root -0.597098 18.7233 5.27495 1.60043 -5.86567 -2.948
lowerback 2.65398 0.372885 -0.45036
upperback 0.399307 0.487803 0.328532
thorax -1.0849 0.245852 0.571557
lowerneck -14.7055 -1.63602 -0.191583
upperneck 32.0792 -3.15749 2.20344
head 13.2647 -1.13507 0.401013
rclavicle 4.47266e-015 -5.1684e-015
rhumerus -1.24676 40.4753 -75.5458
rradius 70.91
rwrist 5.78877
rhand -8.79002 -51.4953
rfingers 7.12502
rthumb 17.1486 -80.7585
lclavicle 4.47266e-015 -5.1684e-015
lhumerus 6.84845 -34.7664 72.3585
lradius 58.2838
lwrist 5.04483
lhand -4.57779 -42.5659
lfingers 7.12502
lthumb 21.199 -13.705
rfemur 0 0 0
rtibia 0
rfoot 0 0
rtoes 0
lfemur -4.53854 -5.09452 -11.7183
ltibia 22.1165
lfoot -24.216 17.267
ltoes -53.6444
91
root -0.596164 18.7222 5.27942 1.58889 -5.92609 -2.97449
lowerback 2.23329 0.343571 -0.610811
upperback 0.779855 0.44681 0.389827
thorax -0.460914 0.222482 0.729744
lowerneck -15.0379 -1.63713 -0.180051
upperneck 31.9243 -3.16346 2.21558
head 13.271 -1.13295 0.399469
rclavicle 1.05356e-014 -9.14409e-015
rhumerus 0.451054 41.2695 -73.7718
rradius 70.8777
rwrist 5.45036
rhand -7.42554 -51.848
rfingers 7.12502
rthumb 18.4615 -80.9919
lclavicle 1.05356e-014 -9.14409e-015
lhumerus 7.42498 -34.3537 72.1464
lradius 58.1465
lwrist 4.96232
lhand -4.34832 -42.4947
lfingers 7.12502
lthumb 21.4194 -13.6588
rfemur 0 0 0
rtibia 0
rfoot 0 0
rtoes 0
lfemur -4.5203 -4.82092 -11.6741
ltibia 22.1464
lfoot -24.0871 17.1476
ltoes -53.7469
92
root -0.596102 18.7211 5.28448 1.57065 -5.97093 -2.97435
lowerback 2.30497 0.391895 -0.608958
upperback 0.797115 0.510385 0.311256
thorax -0.483739 0.254345 0.646175
lowerneck -15.0552 -1.7257 -0.224454
upperneck 31.9626 -3.36028 2.44545
head 13.3013 -1.19302 0.466283
rclavicle 1.23495e-014 -5.56597e-015
rhumerus 1.17805 41.7123 -72.6615
rradius 70.9352
rwrist 5.40524
rhand -2.62012 -52.7957
rfingers 7.12502
rthumb 23.0785 -81.4337
lclavicle 1.23495e-014 -5.56597e-015
lhumerus 7.46001 -34.4512 72.1069
lradius 58.0541
lwrist 4.93465
lhand -4.29405 -42.4485
lfingers 7.12502
lthumb 21.4716 -13.6184
rfemur 0 0 0
rtibia 0
rfoot 0 0
rtoes 0
lfemur -4.50569 -4.57711 -11.6614
ltibia 22.1852
lfoot -23.9637 17.0542
ltoes -53.9198
93
root -0.595614 18.7207 5.28985 1.5507 -6.0075 -2.98529
lowerback 2.52239 0.462604 -0.566968
upperback 0.713166 0.603794 0.230281
thorax -0.691551 0.301996 0.534922
lowerneck -15.0249 -1.85408 -0.347714
upperneck 32.0758 -3.61408 2.73111
head 13.3584 -1.27955 0.560551
rclavicle 1.31695e-015 4.37326e-015
rhumerus 1.59036 42.0346 -71.7299
rradius 71.0113
rwrist 5.4081
rhand -0.955565 -52.7822
rfingers 7.12502
rthumb 24.6748 -81.2113
lclavicle 1.31695e-015 4.37326e-015
lhumerus 7.35754 -34.7051 72.1321
lradius 57.9694
lwrist 4.89592
lhand -4.36096 -42.3463
lfingers 7.12502
lthumb 21.4073 -13.5089
rfemur 0 0 0
rtibia 0
rfoot 0 0
rtoes 0
lfemur -4.47492 -4.58153 -11.6648
ltibia 22.2204
lfoot -23.9847 17.1154
ltoes -53.9646
94
root -0.594786 18.7207 5.29599 1.53255 -6.0096 -3.04386
lowerback 2.86784 0.55056 -0.392261
upperback 0.543344 0.72301 0.121379
thorax -1.05688 0.362458 0.31718
lowerneck -14.9067 -2.01031 -0.43751
upperneck 32.2027 -3.90923 2.98639
head 13.4032 -1.38492 0.63172
rclavicle -4.19933e-015 1.31198e-014
rhumerus 1.74276 42.3179 -71.0082
rradius 71.1047
rwrist 5.22083
rhand -0.499776 -52.5011
rfingers 7.12502
rthumb 25.1116 -80.8697
lclavicle -4.19933e-015 1.31198e-014
lhumerus 7.16834 -35.1511 72.1414
lradius 57.949
lwrist 4.85562
lhand -4.40824 -42.3132
lfingers 7.12502
lthumb 21.3619 -13.4707
rfemur 0 0 0
rtibia 0
rfoot 0 0
rtoes 0
lfemur -4.4375 -4.69707 -11.6234
ltibia 22.2485
lfoot -24.0571 17.2108
ltoes -53.9217
95
root -0.59473 18.7208 5.30342 1.52976 -5.99971 -3.08686
lowerback 3.01605 0.612687 -0.292092
upperback 0.474854 0.807361 0.0426771
thorax -1.20822 0.404444 0.175083
lowerneck -14.8181 -2.10846 -0.494389
upperneck 32.2553 -4.11127 3.19944
head 13.4194 -1.45185 0.694804
rclavicle -9.93923e-017 -5.1684e-015
rhumerus 2.14307 42.6879 -70.0572
rradius 71.2412
rwrist 4.98437
rhand -0.415253 -52.2807
rfingers 7.12502
rthumb 25.1926 -80.638
lclavicle -9.93923e-017 -5.1684e-015
lhumerus 7.09561 -35.4594 72.0826
lradius 57.9425
lwrist 4.687
lhand -4.3898 -42.3517
lfingers 7.12502
lthumb 21.3796 -13.5112
rfemur 0 0 0
rtibia 0
rfoot 0 0
rtoes 0
lfemur -4.41728 -4.71276 -11.5838
ltibia 22.2721
lfoot -24.0831 17.2314
ltoes -53.9424
